<svg width="20" height="20" viewBox="0 0 20 20" fill="none" xmlns="http://www.w3.org/2000/svg">
<path d="M17.5 5.0001V13.7501C17.5 15.4168 16.5833 16.2501 15 16.2501H5C3.41667 16.2501 2.5 15.4168 2.5 13.7501V6.2501C2.5 4.5834 3.41667 3.7501 5 3.7501H15C16.5833 3.7501 17.5 4.5834 17.5 6.2501V5.0001Z" fill="#8C8E98"/>
<path d="M14.1667 5.62503L11.5583 7.61669C10.7 8.27503 9.3 8.27503 8.44167 7.61669L5.83333 5.62503C5.525 5.39169 5.46667 4.95836 5.7 4.65003C5.93333 4.34169 6.36667 4.28336 6.675 4.51669L9.28333 6.50836C9.68333 6.80836 10.3167 6.80836 10.7167 6.50836L13.325 4.51669C13.6333 4.28336 14.0667 4.34169 14.3 4.65003C14.5333 4.95836 14.475 5.39169 14.1667 5.62503Z" fill="white"/>
</svg>